HIERARCHY
ROOT Hips
{
 OFFSET 0.000000 0.000000 0.000000
 CHANNELS 6 Xposition Yposition Zposition Yrotation Xrotation Zrotation
 JOINT Chest
 {
  OFFSET 0.000000 9.585900 0.002600
  CHANNELS 3 Yrotation Xrotation Zrotation
  JOINT Chest2
  {
   OFFSET 0.000000 9.601200 -0.005300
   CHANNELS 3 Yrotation Xrotation Zrotation
   JOINT Chest3
   {
    OFFSET 0.000000 9.561800 0.000000
    CHANNELS 3 Yrotation Xrotation Zrotation
    JOINT Chest4
    {
     OFFSET 0.000000 9.552100 0.000000
     CHANNELS 3 Yrotation Xrotation Zrotation
     JOINT Neck
     {
      OFFSET 0.000000 14.453000 0.000000
      CHANNELS 3 Yrotation Xrotation Zrotation
      JOINT Head
      {
       OFFSET 0.000000 8.936500 -0.011300
       CHANNELS 3 Yrotation Xrotation Zrotation
       End Site
       {
        OFFSET 0.000000 17.073600 -0.006000
       }
      }
     }
     JOINT RightCollar
     {
      OFFSET -2.921100 9.558500 0.000000
      CHANNELS 3 Yrotation Xrotation Zrotation
      JOINT RightShoulder
      {
       OFFSET -13.519700 0.000000 0.000000
       CHANNELS 3 Yrotation Xrotation Zrotation
       JOINT RightElbow
       {
        OFFSET 0.000000 -29.696600 0.000000
        CHANNELS 3 Yrotation Xrotation Zrotation
        JOINT RightWrist
        {
         OFFSET 0.000000 -24.004700 0.000000
         CHANNELS 3 Yrotation Xrotation Zrotation
         End Site
         {
          OFFSET 0.000000 -17.728500 0.000000
         }
        }
       }
      }
     }
     JOINT LeftCollar
     {
      OFFSET 2.921100 9.558500 0.000000
      CHANNELS 3 Yrotation Xrotation Zrotation
      JOINT LeftShoulder
      {
       OFFSET 13.519700 0.000000 0.000000
       CHANNELS 3 Yrotation Xrotation Zrotation
       JOINT LeftElbow
       {
        OFFSET 0.000000 -29.696600 0.000000
        CHANNELS 3 Yrotation Xrotation Zrotation
        JOINT LeftWrist
        {
         OFFSET 0.000000 -24.004700 0.000000
         CHANNELS 3 Yrotation Xrotation Zrotation
         End Site
         {
          OFFSET 0.000000 -17.728500 0.000000
         }
        }
       }
      }
     }
    }
   }
  }
 }
 JOINT RightHip
 {
  OFFSET -7.771700 -0.012900 -0.001300
  CHANNELS 3 Yrotation Xrotation Zrotation
  JOINT RightKnee
  {
   OFFSET 0.000000 -40.869800 0.001200
   CHANNELS 3 Yrotation Xrotation Zrotation
   JOINT RightAnkle
   {
    OFFSET 0.000000 -39.717900 0.002100
    CHANNELS 3 Yrotation Xrotation Zrotation
    JOINT RightToe
    {
     OFFSET 0.000000 -4.965400 11.033500
     CHANNELS 3 Yrotation Xrotation Zrotation
     End Site
     {
      OFFSET 0.000000 -1.423100 5.872300
     }
    }
   }
  }
 }
 JOINT LeftHip
 {
  OFFSET 7.771700 -0.012900 -0.001300
  CHANNELS 3 Yrotation Xrotation Zrotation
  JOINT LeftKnee
  {
   OFFSET 0.000000 -40.869800 0.001200
   CHANNELS 3 Yrotation Xrotation Zrotation
   JOINT LeftAnkle
   {
    OFFSET 0.000000 -39.717900 0.002100
    CHANNELS 3 Yrotation Xrotation Zrotation
    JOINT LeftToe
    {
     OFFSET 0.000000 -4.965400 11.033500
     CHANNELS 3 Yrotation Xrotation Zrotation
     End Site
     {
      OFFSET 0.000000 -1.423100 5.872300
     }
    }
   }
  }
 }
}
MOTION
Frames: 8
Frame Time: 0.008333
-16.243551 55.269443 14.636245 -178.431500 -15.980865 -2.084364 0.066651 15.913515 0.239310 0.010057 1.556762 0.045988 0.019526 2.603375 0.075881 0.146874 14.157738 0.433281 1.193993 12.664484 5.741456 -0.072959 -12.329588 5.905602 1.434637 -0.241210 2.485904 3.202995 -4.756889 -9.248296 -86.478499 -66.791171 117.571947 -12.742148 -15.508874 -5.912953 -6.751583 -1.893274 1.220591 1.414836 -12.588547 9.513051 62.048097 -58.825663 -105.410194 5.217961 -10.805217 4.097626 -1.203456 -59.000330 12.410414 -96.829200 87.628455 -101.292884 -11.016161 -22.726054 14.488818 0.059848 -0.144011 0.045749 10.549557 -55.559588 -6.115136 111.014127 77.016872 108.437316 -7.714388 -23.716575 1.846814 0.068046 0.235347 0.035880
-16.245363 55.269081 14.634607 -178.433418 -15.996883 -2.081178 0.072476 15.919765 0.236273 0.007567 1.563719 0.047535 0.022882 2.597344 0.073975 0.148578 14.160352 0.433182 1.200912 12.669858 5.740120 -0.046362 -12.315333 5.894062 1.443689 -0.240917 2.481408 3.201541 -4.759045 -9.232751 -86.469578 -66.794372 117.557444 -12.735630 -15.503283 -5.919858 -6.736327 -1.903742 1.229990 1.391269 -12.570435 9.509030 62.049221 -58.825120 -105.413671 5.215703 -10.798440 4.078118 -1.171468 -58.988831 12.398724 -96.765644 87.602262 -101.212683 -11.077198 -22.705120 14.493372 0.080537 -0.147153 0.058377 10.563238 -55.544583 -6.121207 111.050842 77.021444 108.476286 -7.711703 -23.718239 1.851414 0.062760 0.233380 0.034826
-16.246230 55.268312 14.633709 -178.435201 -16.007076 -2.083171 0.079201 15.922263 0.238250 0.006835 1.561900 0.047132 0.024007 2.600016 0.074226 0.146674 14.165298 0.434418 1.205244 12.671655 5.738970 -0.033653 -12.309272 5.890403 1.456516 -0.243463 2.476441 3.193527 -4.757353 -9.225728 -86.479061 -66.789494 117.565380 -12.727809 -15.495600 -5.921464 -6.728597 -1.911744 1.235340 1.380753 -12.561806 9.510542 62.042560 -58.823689 -105.424212 5.213100 -10.802191 4.072156 -1.165964 -58.980576 12.399048 -96.770090 87.600652 -101.218205 -11.064362 -22.691397 14.486252 0.027604 -0.154729 0.051802 10.564928 -55.536116 -6.115445 111.068451 77.023929 108.497423 -7.719493 -23.721346 1.851689 0.066856 0.235219 0.037342
-16.246917 55.267595 14.632212 -178.435624 -16.019905 -2.086329 0.083697 15.929401 0.241871 0.009482 1.560039 0.045385 0.020724 2.604661 0.075936 0.150346 14.162985 0.432437 1.206634 12.677054 5.741302 -0.022432 -12.305091 5.888708 1.461188 -0.242518 2.470630 3.188199 -4.755892 -9.214985 -86.493646 -66.785863 117.567563 -12.726711 -15.487055 -5.911356 -6.727534 -1.912135 1.240725 1.372897 -12.558030 9.515156 62.027210 -58.825411 -105.452877 5.211441 -10.817890 4.096566 -1.161513 -58.967263 12.398016 -96.736558 87.599165 -101.192187 -11.021100 -22.685108 14.482094 0.075098 -0.152884 0.049376 10.561976 -55.524858 -6.106133 111.089233 77.028009 108.521556 -7.728849 -23.724124 1.854461 0.072881 0.236575 0.037953
-16.248055 55.266583 14.631571 -178.440339 -16.026759 -2.084919 0.091177 15.931138 0.242130 0.008946 1.560361 0.045418 0.019741 2.606964 0.076113 0.152185 14.160725 0.431793 1.213503 12.680604 5.742370 -0.023961 -12.302881 5.889304 1.463498 -0.238097 2.467391 3.184862 -4.757078 -9.209597 -86.509100 -66.790508 117.581354 -12.732785 -15.484452 -5.911882 -6.728265 -1.909114 1.242091 1.365489 -12.563098 9.524834 62.015955 -58.816140 -105.458729 5.212738 -10.833209 4.096832 -1.131686 -58.963694 12.373133 -96.744863 87.600147 -101.195662 -10.972035 -22.680368 14.472113 0.058943 -0.154469 0.043359 10.566764 -55.518599 -6.103568 111.096888 77.018968 108.523114 -7.727916 -23.730094 1.856649 0.065540 0.239534 0.036596
-16.249091 55.265548 14.631331 -178.437206 -16.030113 -2.085477 0.093775 15.930124 0.241877 0.005137 1.559513 0.047549 0.028092 2.603644 0.073623 0.148751 14.163873 0.435732 1.229209 12.686123 5.736949 -0.039116 -12.302503 5.896897 1.474484 -0.235292 2.453409 3.176870 -4.754836 -9.200661 -86.524608 -66.793846 117.591826 -12.733666 -15.495808 -5.914443 -6.725416 -1.912380 1.241213 1.351122 -12.562640 9.534233 62.009057 -58.805427 -105.455024 5.219791 -10.843589 4.079473 -1.126731 -58.963261 12.372619 -96.754978 87.592731 -101.199986 -10.987320 -22.665900 14.457409 0.052408 -0.153904 0.051360 10.568793 -55.518625 -6.102936 111.107242 77.015941 108.532574 -7.735301 -23.726406 1.857481 0.066258 0.237221 0.038046
-16.250697 55.264768 14.630838 -178.437949 -16.034551 -2.080660 0.096989 15.932502 0.237102 0.008308 1.557439 0.046076 0.030700 2.605917 0.073453 0.150378 14.163416 0.436111 1.229673 12.689579 5.739201 -0.019581 -12.293557 5.891406 1.477128 -0.236869 2.449470 3.170854 -4.759184 -9.202599 -86.535312 -66.795948 117.599914 -12.738216 -15.495827 -5.919608 -6.714424 -1.929877 1.247548 1.328857 -12.544959 9.534770 61.995071 -58.801595 -105.465492 5.220449 -10.853226 4.079672 -1.116323 -58.960136 12.373828 -96.695734 87.582261 -101.134442 -11.042150 -22.654552 14.460414 0.044227 -0.147744 0.051902 10.578837 -55.510235 -6.105333 111.097922 77.020608 108.523451 -7.750036 -23.732034 1.856618 0.075505 0.244679 0.043383
-16.251920 55.264303 14.630138 -178.438474 -16.039394 -2.077172 0.100794 15.935496 0.234056 0.012696 1.556061 0.045150 0.031969 2.607863 0.071667 0.155565 14.164574 0.436310 1.221214 12.690116 5.745603 -0.014765 -12.290390 5.890667 1.478814 -0.233654 2.447738 3.154973 -4.764481 -9.195779 -86.534291 -66.800440 117.603636 -12.741141 -15.498565 -5.923514 -6.717806 -1.939245 1.256138 1.314837 -12.542055 9.545968 61.980214 -58.787959 -105.480423 5.216702 -10.862841 4.087158 -1.110086 -58.955381 12.372277 -96.688236 87.584302 -101.130844 -11.043469 -22.647077 14.454449 0.029606 -0.150554 0.051528 10.582703 -55.501971 -6.104747 111.082241 77.022094 108.506556 -7.759305 -23.737606 1.851550 0.081195 0.251905 0.049133
